<svg id="Layer_1" data-name="Layer 1" xmlns="http://www.w3.org/2000/svg" viewBox="0 0 72.33 100"><title>store-locataor</title><path d="M34.67,98.82c-14.76-17.11-27.44-35.5-32.42-58C-.81,27.06,5.85,13.14,17.83,5.69A34.91,34.91,0,0,1,56.7,7.48C68.14,16.1,72.81,30.26,68.86,44.84,64.7,60.21,56.46,73.51,47.37,86.33c-3.07,4.33-6.57,8.34-9.88,12.49Zm1.09-10.74c10.66-11.94,22-32.14,25.72-45.28C64.74,31.18,61.11,19.74,52,13A26.8,26.8,0,0,0,10.16,41.69C14.79,59.13,24.93,73.6,35.76,88.08Z"/><path d="M20.7,34.29c.14-8.45,6.69-14.71,15.32-14.63S51.3,26.24,51.25,34.52A15.38,15.38,0,0,1,35.46,49.65,15.06,15.06,0,0,1,20.7,34.29Z"/></svg>